<?xml version="1.0" standalone="no"?>
<!DOCTYPE svg PUBLIC "-//W3C//DTD SVG 20010904//EN"
 "http://www.w3.org/TR/2001/REC-SVG-20010904/DTD/svg10.dtd">
<svg version="1.0" xmlns="http://www.w3.org/2000/svg"
 width="626.000000pt" height="626.000000pt" viewBox="0 0 626.000000 626.000000"
 preserveAspectRatio="xMidYMid meet">
<metadata>
Created by potrace 1.14, written by Peter Selinger 2001-2017
</metadata>
<g transform="translate(0.000000,626.000000) scale(0.100000,-0.100000)"
fill="#000000" stroke="none">
<path d="M1060 6046 c-139 -39 -248 -167 -270 -318 l-6 -48 2540 -2 2541 -3 3
-1567 2 -1568 -1760 0 -1760 0 0 -390 0 -390 1778 0 c1528 0 1786 2 1834 15
147 38 250 145 288 295 8 32 10 566 8 1865 l-3 1820 -23 56 c-45 113 -147 206
-255 235 -73 19 -4847 19 -4917 0z m2548 -3722 c93 -46 133 -149 93 -240 -28
-62 -47 -82 -96 -105 -69 -32 -165 -19 -218 29 -76 68 -76 212 0 284 64 62
140 72 221 32z"/>
<path d="M297 5269 c-94 -22 -205 -107 -246 -188 -54 -106 -51 41 -49 -2366
l3 -2220 27 -58 c57 -121 153 -203 265 -226 43 -9 229 -11 713 -9 726 3 685 0
783 71 68 50 113 110 137 183 20 58 20 89 18 2299 l-3 2240 -26 55 c-38 81
-106 151 -186 191 l-68 34 -665 2 c-367 1 -682 -3 -703 -8z m1273 -574 l0
-195 -590 0 -590 0 0 195 0 195 590 0 590 0 0 -195z m-2 -782 l-3 -198 -585 0
-585 0 -3 198 -2 197 590 0 590 0 -2 -197z m-870 -2190 c66 -53 77 -77 77
-158 0 -67 -3 -77 -31 -112 -38 -48 -106 -83 -159 -83 -58 0 -124 37 -160 88
-25 37 -30 53 -30 105 0 52 5 69 30 107 43 64 102 93 179 87 45 -4 66 -12 94
-34z"/>
<path d="M2940 1176 l0 -194 -61 -11 c-87 -15 -158 -51 -216 -109 -62 -62
-102 -141 -110 -216 l-6 -56 978 0 977 0 -7 48 c-7 50 -55 163 -79 188 -9 8
-19 21 -23 28 -5 7 -32 29 -60 49 -53 36 -116 60 -185 72 l-38 6 0 194 0 195
-585 0 -585 0 0 -194z"/>
</g>
</svg>
